<?xml version="1.0" encoding="utf-8"?>
<!-- Generator: Adobe Illustrator 23.1.0, SVG Export Plug-In . SVG Version: 6.00 Build 0)  -->
<svg version="1.1" id="Capa_1" xmlns="http://www.w3.org/2000/svg" xmlns:xlink="http://www.w3.org/1999/xlink" x="0px" y="0px"
	 viewBox="0 0 1190.55 841.89" style="enable-background:new 0 0 1190.55 841.89;" xml:space="preserve">
<style type="text/css">
	.st0{stroke:#FFFFF;stroke-miterlimit:10;}
	.st1{fill:yellow;}
</style>
<rect x="180.9" y="144.86" class="st0" width="297.26" height="330.14"/>
<g>
	<g>
		<path d="M265.33,97.31c51.33-16.24,105.3-24.98,159.17-24.81c20.65,0.06,44.38,2.24,59.63,17.87
			c15.58,15.96,16.31,40.27,15.56,61.21c-1.09,30.81-3.16,61.61-4.76,92.4c-0.09,1.81,2.23,3.23,3.76,2.16
			c45.93-32.05,98.4-70.19,106.75-130.02c3.43-24.55-2.72-50.41-18.64-69.69c-18.13-21.95-46.59-28.09-73.92-27.13
			c-60.09,2.13-112.02,37.97-152.01,80.3c-10.26,10.86-19.96,22.24-29.32,33.88c-9.19,11.43-18.07,23.16-25.76,35.67
			c-7.52,12.24-13.89,25.28-18.03,39.05c-4.46,14.84-6.13,30.43-5.88,45.89c0.49,30.73,7.47,61.71,18.16,90.44
			c10.11,27.17,23.83,54.14,42.51,76.47c9.32,11.14,20.29,20.64,32.85,27.97c12.71,7.41,26.57,12.71,40.58,17.1
			c13.9,4.36,28.36,8.58,43.05,8.64c13.93,0.06,26.72-4.55,37.19-13.76c10.24-9.01,17.8-20.96,24.31-32.81
			c6.72-12.24,12.18-25.18,16.47-38.46c8.59-26.64,12.41-54.71,12.98-82.64c0.58-28.7-2.18-57.54-7.46-85.74
			c-5.29-28.25-13.99-56.59-30.54-80.41c-14.73-21.19-36.29-38.56-61.39-45.56C424.36,88,397.75,94.57,375,108.57
			c-11.91,7.33-22.76,16.32-32.85,25.96c-10.03,9.58-19.73,19.81-27.21,31.55c-7.34,11.53-12.05,24.58-12.16,38.35
			c-0.11,14.26,4.36,28.09,10.54,40.8c6.6,13.56,15.23,26,23.99,38.23c8.58,11.97,17.46,23.73,26.89,35.05
			c18.58,22.3,39.47,42.99,63.68,59.18c23.98,16.03,51.32,27.66,80.04,31.44c29.86,3.93,59.32-2.13,87.07-13.16
			c14.16-5.63,27.89-12.31,41.37-19.39c12.87-6.75,25.5-14.1,36.73-23.38c10.69-8.84,19.94-19.6,25.89-32.2
			c2.83-5.99,4.97-12.31,6.02-18.86c0.53-3.28,0.84-6.6,0.84-9.93c-0.01-3.47-0.11-5.28-2.58-7.78
			c-16.04-16.33-43.7-12.46-60.64,0.25c-21.02,15.77-28.58,43.48-34.12,67.85c-11.91,52.36-21.3,111.14,0.32,162.32
			c11.1,26.29,30.51,46.87,52.92,64.04c22.39,17.16,47.09,33.34,74.2,41.83c25.59,8.02,53.61,7.09,75.26-10.17
			c19.13-15.25,29.44-39.28,34.99-62.52c7.32-30.66,8.33-63.1,4.15-94.29c-3.66-27.29-11.13-55.51-29.06-77.09
			c-16.08-19.36-39.8-30.13-64.45-33.27c-25.55-3.25-51.16,1.63-74.61,11.91c-26.31,11.54-49.44,29.25-70.72,48.32
			c-22.72,20.36-44.17,42.22-64.74,64.74c-20.39,22.31-39.77,45.53-58.15,69.52c-0.56,0.73-0.35,1.78,0,2.52
			c8.2,17.39,16.65,34.91,28.81,49.94c5.97,7.38,12.89,14.01,20.77,19.32c9.39,6.33,20.01,10.57,30.36,15.03
			c22.48,9.69,44.97,19.38,67.45,29.07c10.09,4.35,20.6,10.27,31.63,11.65c11.36,1.42,23.11-1.94,34.2-4.04
			c27.16-5.16,54.33-10.31,81.49-15.47c0.77-0.15,1.61-0.96,1.75-1.75c4.78-28.16,9.72-58.13,0.93-86.04
			c-8.19-25.99-28.74-46.93-48.81-64.47c-10.68-9.33-23.66-17.94-38.49-16.41c-1.05,0.11-2.18,0.69-2.41,1.84
			c-7.12,34.53,12.43,71.1,43.09,87.44c33.68,17.95,73.67,5.5,98.81-21.13c29-30.72,34.11-75.03,23.07-114.58
			c-11.94-42.77-41.24-77.63-74.02-106.43c-33.41-29.34-70.63-56.74-112.14-73.34c-5.2-2.08-10.47-3.96-15.8-5.66
			c-0.98-0.31-2.36,0.19-2.82,1.15c-8.55,17.51,12.51,31.71,24.43,40.39c16.83,12.26,34,24.26,52.74,33.46
			c34.71,17.04,78.07,24.1,112.58,2.62c29-18.05,45.01-50.95,53.48-82.95c4.06-15.36,9.95-36.54-2.39-49.69
			c-6.1-6.51-15.27-9.18-23.79-10.66c-9.33-1.62-18.84-1.79-28.24-0.64c-39.44,4.83-74.62,29.55-101.77,57.32
			c-26.16,26.76-44.21,59.17-61.45,92.05c-16.39,31.26-32.63,63.47-56.98,89.45c-27.28,29.1-63.74,45.61-102.36,53.69
			c-21.3,4.46-44.1,7.81-65.47,2.02c-20.39-5.53-39.12-17.39-56.95-28.4c-18.23-11.26-35.87-23.5-52.76-36.69
			c-8.38-6.54-16.58-13.31-24.59-20.3c-7.29-6.36-14.77-12.75-20.75-20.41c-5.79-7.41-9.83-16.07-8.7-25.65c0.38-3.19-4.62-3.16-5,0
			c-2.2,18.56,12.6,33.28,25.26,44.61c15.28,13.67,31.28,26.54,47.89,38.57c16.59,12.01,33.81,23.17,51.56,33.4
			c17.74,10.22,36.13,20.05,56.8,22.32c20.44,2.24,41.71-1.59,61.56-6.32c18.87-4.5,37.36-11.04,54.43-20.32
			c31.37-17.05,54.54-43.67,73.02-73.76c18.31-29.8,32.49-61.91,50.66-91.79c20.11-33.07,46.49-62.59,79.47-83.27
			c16.35-10.25,34.46-18.23,53.64-21.16c9.7-1.48,19.74-1.58,29.41,0.11c8.62,1.5,18.5,4.14,23.58,11.91
			c4.97,7.6,4.25,17.52,2.76,26.06c-1.47,8.41-3.62,16.75-6.14,24.9c-4.99,16.12-11.93,31.77-21.79,45.53
			c-9.58,13.37-22.2,24.63-37.34,31.29c-18.45,8.12-39.48,8.83-59.05,5.01c-20.05-3.91-38.69-12.56-56.09-23.07
			c-8.69-5.25-17.09-10.95-25.36-16.83c-8.05-5.72-16.73-11.22-23.83-18.13c-5.69-5.53-12.17-13.9-8.14-22.15
			c-0.94,0.38-1.88,0.77-2.82,1.15c41.15,13.14,77.4,38.01,110.66,65.01c32.2,26.14,62.89,56.54,79.95,94.99
			c16.21,36.52,19.77,81.7-2.28,116.65c-18.64,29.55-55.31,50.8-90.64,40.88c-32.15-9.03-56.42-41.72-55.91-75.08
			c0.06-4.13,0.53-8.2,1.36-12.24c-0.8,0.61-1.61,1.22-2.41,1.84c12.97-1.34,24.28,5.82,33.77,13.91
			c9.61,8.2,18.74,17.33,27.04,26.84c8.6,9.86,16.17,20.85,20.6,33.24c4.57,12.77,5.95,26.36,5.65,39.86
			c-0.35,15.71-2.88,31.26-5.5,46.72c0.58-0.58,1.16-1.16,1.75-1.75c-23.19,4.4-46.39,8.8-69.58,13.21
			c-11.64,2.21-23.48,5.3-35.3,6.27c-11.76,0.96-21.61-3.78-32.14-8.32c-21.9-9.44-43.79-18.87-65.69-28.31
			c-10.24-4.41-20.73-8.5-30.56-13.77c-8.76-4.7-16.51-10.75-23.23-18.07c-14.36-15.62-23.61-35.19-32.57-54.2c0,0.84,0,1.68,0,2.52
			c26.66-34.77,55.52-67.84,86.36-98.97c28.49-28.75,58.52-57.99,94.82-76.73c32.09-16.57,70.05-23.26,104.83-11.09
			c17.02,5.96,32.03,16.71,42.54,31.43c11.31,15.84,17.53,34.68,21.32,53.62c4.46,22.27,5.86,45.18,4.4,67.84
			c-1.27,19.75-4.44,39.73-11.25,58.37c-5.84,15.98-14.78,31.45-28.28,42.14c-15.13,11.99-34.63,15.7-53.47,12.87
			c-19.76-2.97-38.33-11.67-55.37-21.8c-17.32-10.29-34.19-22.1-49.14-35.63c-14.63-13.24-26.91-28.69-35.07-46.74
			c-7.8-17.25-11.71-36.12-13.01-54.95c-2.66-38.66,4.44-77.93,13.71-115.33c4.5-18.15,10.63-36.92,23.71-50.82
			c10.81-11.48,27.62-18.2,43.41-15.4c7.45,1.32,14.03,4.86,18.98,10.62c-0.24-0.59-0.49-1.18-0.73-1.77
			c2.48,37.1-28.8,63.15-58.1,79.49c-31.59,17.62-66.33,34.18-102.83,37.36c-35.57,3.1-70.78-7.92-101.01-26.22
			c-30.45-18.43-55.66-44.25-77.71-71.93c-11.11-13.95-21.81-28.4-31.53-43.36c-9.73-14.97-18.67-31.43-21.13-49.36
			c-4.91-35.78,22.83-64.2,47.92-85.55c25.27-21.5,57.29-37.47,91.06-28.84c32.24,8.23,56.96,33.59,71.41,62.68
			c15.53,31.25,21.48,67.12,24.6,101.58c3.1,34.31,2.24,69.29-5.36,102.98c-3.68,16.29-8.91,32.28-16.04,47.4
			c-7.04,14.93-15.63,30.39-27.8,41.77c-6.3,5.89-13.72,10.28-22.15,12.28c-8.97,2.12-18.42,1.59-27.43,0.01
			c-17.61-3.09-35.5-8.89-51.83-16.14c-16.07-7.14-30.48-16.82-42.39-29.82c-12.05-13.15-21.57-28.55-29.88-44.27
			c-17.3-32.75-28.77-69.11-32.53-106.01c-1.92-18.83-1.62-38.06,2.95-56.51c4.32-17.43,12.43-33.59,22.15-48.6
			c9.78-15.1,21.09-29.2,32.69-42.92c11.57-13.68,23.75-26.88,36.91-39.05c26.24-24.27,56.8-44.39,91.39-54.35
			c17.29-4.98,35.32-7.32,53.31-6.16c17.43,1.13,34.98,5.75,48.3,17.56c23.4,20.75,30.14,54.56,22.75,84.06
			c-8.63,34.47-32.85,62.14-59.66,84.25c-13.62,11.24-28.12,21.34-42.59,31.44c1.25,0.72,2.51,1.44,3.76,2.16
			c1.5-28.83,3.1-57.66,4.51-86.5c1.05-21.45,1.45-45.89-11.49-64.25c-12.97-18.4-35.42-24.12-56.77-25.39
			c-26.57-1.58-53.77,0.74-80.11,4.21c-31.23,4.11-62.04,10.95-92.07,20.44C260.94,93.46,262.25,98.29,265.33,97.31L265.33,97.31z"
			/>
	</g>
</g>
<circle class="st1" cx="609.67" cy="546.23" r="242.47"/>
</svg>
